Push (2009) 
  111 min  -  Action | Sci-Fi | Thriller   -  24 April 2009 
 
http://image.bayimg.com/baifcaadd.jpg

Push 2009_ 720p BluRay x264 mkv_[ENG][Lektor i napisy PL]

Two young Americans with special abilities must race to find a girl in Hong Kong before a shadowy government organization called Division does. 

 Director: Paul McGuigan
 Writer: David Bourla
Stars: Camilla Belle, Dakota Fanning and Chris Evans

CastCast overview, first billed only:
 	Colin Ford 	 ... 	Young Nick 
 	Joel Gretsch 	 ... 	Nick's Father 
 	Djimon Hounsou 	 ... 	Henry Carver 
 	Dakota Fanning 	 ... 	Cassie Holmes 
 	Robert Tsonos 	 ... 	 Division Doctor #1 
 	Brandon Rhea 	 ... 	 Division Doctor #2 
 	Camilla Belle 	 ... 	Kira Hudson 
 	Neil Jackson 	 ... 	Victor Budarin 
 	Chris Evans 	 ... 	Nick Gant 
 	Kai Cheung Leung 	 ... 	 Dice Man 
 	Sun Nan Hung 	 ... 	 Dice Man's Heavy 
 	Corey Stoll 	 ... 	Agent Mack 
 	Scott Michael Campbell 	 ... 	Agent Holden 
 	Wai Man Tam 	 ... 	 Cook in Fish Market 
 	Hal Yamanouchi 	 ... 	Pop Father (as Haruihko Yamanouchi) 

Full cast and crew » 
Edit
Storyline

A group of young American ex-pats with telekinetic and clairvoyant abilities are hiding from a clandestine U.S. government agency. They must utilize their different talents and band together for a final job enabling them to escape the agency forever. Written by

info:
====================================

General
UniqueID                         : 259789136278786741605155392261606053945
 
 Push 2009_ 720p BluRay x264 mkv_[ENG][Lektor i napisy PL].mkv


Complete name                 
Format                           : Matroska
File size                        : 4.20 GiB
Duration                         : 1h 46mn
Overall bit rate                 : 5 631 Kbps
Encoded date                     : UTC 2009-09-18 18:01:19
Writing application              : MakeMKV v1.5.8 win(x64-release)
Writing library                  : libmakemkv v1.5.8 (0.7.7/0.8.1) win(x64-release)

Video
ID                               : 1
Format                           : MPEG Video
Format version                   : Version 2
Format profile                   : Main@Main
Format settings, BVOP            : No
Format settings, Matrix          : Default
Codec ID                         : V_MPEG2
Codec ID/Info                    : MPEG 1 or 2 Video
Duration                         : 1h 46mn
Bit rate mode                    : Variable
Bit rate                         : 4 623 Kbps
Nominal bit rate                 : 9 800 Kbps
Width                            : 720 pixels
Height                           : 576 pixels
Display aspect ratio             : 16:9
Frame rate                       : 25.000 fps
Standard                         : PAL
Color space                      : YUV
Chroma subsampling               : 4:2:0
Bit depth                        : 8 bits
Scan type                        : Interlaced
Scan order                       : Top Field First
Compression mode                 : Lossy
Bits/(Pixel*Frame)               : 0.446
Stream size                      : 3.45 GiB (82%)
Language                         : English

Audio #1
ID                               : 2
Format                           : AC-3
Format/Info                      : Audio Coding 3
Mode extension                   : CM (complete main)
Codec ID                         : A_AC3
Duration                         : 1h 46mn
Bit rate mode                    : Constant
Bit rate                         : 448 Kbps
Channel(s)                       : 6 channels
Channel positions                : Front: L C R, Side: L R, LFE
Sampling rate                    : 48.0 KHz
Bit depth                        : 16 bits
Compression mode                 : Lossy
Stream size                      : 342 MiB (8%)
Title                            : 3/2+1
Language                         : English

Audio #2
ID                               : 3
Format                           : AC-3
Format/Info                      : Audio Coding 3
Mode extension                   : CM (complete main)
Codec ID                         : A_AC3
Duration                         : 1h 46mn
Bit rate mode                    : Constant
Bit rate                         : 448 Kbps
Channel(s)                       : 6 channels
Channel positions                : Front: L C R, Side: L R, LFE
Sampling rate                    : 48.0 KHz
Bit depth                        : 16 bits
Compression mode                 : Lossy
Stream size                      : 342 MiB (8%)
Title                            : 3/2+1
Language                         : Polish

Text
ID                               : 4
Format                           : VobSub
Codec ID                         : S_VOBSUB
Codec ID/Info                    : The same subtitle format used on DVDs
Language                         : Polish

